# xmcd CD database file
#
# Track frame offsets:
#	150
#	14801
#	29295
#	45806
#	63950
#	85620
#	112711
#	129437
#	153830
#	175456
#	192547
#	213652
#	226362
#	244514
#	262195
#	276587
#	297254
#
# Disc length: 4229 seconds
#
# Revision: 0
# Processed by: cddbd v1.5.2PL0 Copyright (c) Steve Scherf et al.
# Submitted via: CDex 1.51
#
DISCID=ef108311
DTITLE=Slows - Slows
DYEAR=2000
DGENRE=Jazz
TTITLE0=Words - Bee Gees
TTITLE1=Stuck on you - Lionel Richie
TTITLE2=Save the best for last - V. William
TTITLE3=Your song - Elton John
TTITLE4=Just the way you are - Barry White
TTITLE5=I'm not in love - 10CC
TTITLE6=Wonderfull tonight - Eric Clapton
TTITLE7=Il volo - Zucchero
TTITLE8=Wonderfull Life - Black
TTITLE9=Love theme from "Bladerunner" - Vangelis
TTITLE10=Killing me sofily - Dee Dee Bridgewater
TTITLE11=Father and son - Boyzone
TTITLE12=I'll make love to you - Boyz II Men
TTITLE13=Cherish - Kool and the gang
TTITLE14=Strong enough - Sheryl Crow
TTITLE15=Get here - Oleta Adams
TTITLE16=Stay another day - East 17
EXTD=YEAR: 2000
EXTT0=
EXTT1=
EXTT2=
EXTT3=
EXTT4=
EXTT5=
EXTT6=
EXTT7=
EXTT8=
EXTT9=
EXTT10=
EXTT11=
EXTT12=
EXTT13=
EXTT14=
EXTT15=
EXTT16=
PLAYORDER=
